<svg width="102" height="100" viewBox="0 0 102 100" fill="none" xmlns="http://www.w3.org/2000/svg">
<path d="M2.44769 5.6696C-2.5499 8.66959 6.61234 35.8363 11.4433 44.1696L7.44532 53.1696H13.9422C9.69331 59.3531 1.29765 71.4404 3.49879 71L11.4433 69.6696V77.1696C19.3272 71.6428 25.4881 76 27.9869 78.5C32.4148 82.93 36.9825 95.5 51.4755 95C65.9685 94.5 70.4663 81.6696 75.4639 77.1696C79.4619 73.5696 86.2404 74.8363 89.9053 77.1696V71H98.4527C100.852 69.8 92.4041 57.3363 88.406 51.1696H92.4041L88.406 44.1696C106.797 12.5696 101.067 5.33627 95.9024 5.6696C88.3061 5.6696 72.4138 17.3363 65.4172 23.1696C56.6215 20.7696 41.0957 22.1696 34.4322 23.1696C23.2377 9.9696 7.44527 2.66962 2.44769 5.6696Z" fill="#FB8213" stroke="black" stroke-width="2" stroke-linejoin="round"/>
<path d="M29.3249 25C22.2968 28.8726 19.2126 29.6544 14.9931 36C12.0821 37.6829 3.99855 15 6.49735 11C12.9941 9.5 30.8242 24.1739 29.3249 25Z" fill="#CA4000"/>
<path d="M14.9931 36L15.4936 36.8657L15.6963 36.7486L15.8259 36.5537L14.9931 36ZM29.3249 25L28.8423 24.1242L28.8423 24.1242L29.3249 25ZM6.49735 11L6.27239 10.0256C6.01394 10.0853 5.78978 10.2452 5.64924 10.4702L6.49735 11ZM15.8259 36.5537C17.8734 33.4743 19.6108 31.7913 21.6661 30.4009C23.7949 28.9608 26.2067 27.8599 29.8075 25.8758L28.8423 24.1242C25.415 26.0127 22.7707 27.239 20.5455 28.7443C18.2467 30.2994 16.3323 32.18 14.1604 35.4463L15.8259 36.5537ZM5.64924 10.4702C5.18585 11.212 5.03862 12.2361 5.02566 13.2793C5.01221 14.3613 5.14385 15.6336 5.37537 16.9977C5.83905 19.7297 6.72315 22.9429 7.77202 25.9595C8.81941 28.9718 10.0488 31.839 11.2203 33.8666C11.7997 34.8692 12.4023 35.7328 13.0034 36.3002C13.3026 36.5827 13.6589 36.8473 14.0672 36.9868C14.5091 37.1378 15.0192 37.14 15.4936 36.8657L14.4926 35.1343C14.5338 35.1105 14.5874 35.0932 14.6429 35.0897C14.6944 35.0864 14.721 35.0967 14.7139 35.0942C14.6852 35.0844 14.5718 35.0304 14.3762 34.8458C13.9878 34.4792 13.5008 33.8156 12.952 32.8659C11.8673 30.9887 10.6861 28.2507 9.66109 25.3027C8.63755 22.3589 7.78734 19.2565 7.34718 16.6631C7.12677 15.3645 7.0141 14.2216 7.0255 13.3041C7.03739 12.3478 7.18416 11.788 7.34547 11.5298L5.64924 10.4702ZM29.8075 25.8758C30.1197 25.7038 30.3264 25.41 30.3916 25.0726C30.4469 24.7862 30.3885 24.5357 30.3376 24.3796C30.2355 24.0671 30.0365 23.7614 29.842 23.5011C29.4327 22.9534 28.7835 22.2711 27.9891 21.5244C26.3866 20.0181 24.0576 18.1242 21.486 16.3105C18.9161 14.4981 16.0703 12.7421 13.4335 11.5299C12.1152 10.9239 10.8258 10.4429 9.63319 10.1634C8.4519 9.88654 7.29331 9.78992 6.27239 10.0256L6.72232 11.9744C7.32559 11.8351 8.14535 11.8689 9.17682 12.1106C10.197 12.3497 11.3547 12.7755 12.5981 13.3471C15.0849 14.4903 17.821 16.1731 20.3333 17.9449C22.8439 19.7155 25.0974 21.5511 26.6193 22.9817C27.3872 23.7034 27.9358 24.2914 28.2399 24.6983C28.4022 24.9154 28.4389 25.0082 28.4364 25.0007C28.4353 24.9971 28.3927 24.8757 28.4279 24.6932C28.473 24.4597 28.6238 24.2445 28.8423 24.1242L29.8075 25.8758Z" fill="black"/>
<path d="M71.0576 25.5C78.0857 29.3726 81.2396 30.6544 85.4591 37C88.3701 38.6829 97.4533 15.5 94.9545 11.5C88.4577 11.5 69.5583 24.6739 71.0576 25.5Z" fill="#CA4000"/>
<path d="M85.4591 37L84.9586 37.8657L84.7559 37.7486L84.6264 37.5537L85.4591 37ZM71.0576 25.5L71.5402 24.6242L71.5402 24.6242L71.0576 25.5ZM94.9545 11.5V10.5C95.2994 10.5 95.6199 10.6777 95.8026 10.9702L94.9545 11.5ZM84.6264 37.5537C82.5709 34.4626 80.8063 32.6479 78.723 31.131C76.5953 29.5819 74.1373 28.3387 70.575 26.3758L71.5402 24.6242C75.006 26.5339 77.639 27.8679 79.9002 29.5142C82.2057 31.1928 84.1278 33.1918 86.2918 36.4463L84.6264 37.5537ZM95.8026 10.9702C96.2748 11.7261 96.3987 12.773 96.3832 13.8279C96.3671 14.9256 96.1941 16.2187 95.9147 17.6059C95.3551 20.3847 94.3443 23.6598 93.1698 26.7376C91.9965 29.8119 90.6411 32.7388 89.3755 34.8096C88.749 35.8347 88.1076 36.7119 87.4827 37.2872C87.1721 37.5732 86.8089 37.8381 86.4006 37.9797C85.9624 38.1317 85.4438 38.1462 84.9586 37.8657L85.9596 36.1343C85.8382 36.0641 85.7317 36.0948 85.7452 36.0901C85.7885 36.0751 85.9165 36.0106 86.128 35.8159C86.5473 35.4299 87.0736 34.7408 87.669 33.7666C88.8471 31.839 90.1521 29.0356 91.3012 26.0246C92.4489 23.017 93.4224 19.8516 93.9541 17.2111C94.2203 15.8888 94.3698 14.7276 94.3834 13.7985C94.3977 12.8265 94.2588 12.2739 94.1064 12.0298L95.8026 10.9702ZM70.575 26.3758C70.273 26.2094 70.0488 25.9156 69.9888 25.548C69.9388 25.2413 70.0196 24.9816 70.0811 24.8302C70.2047 24.526 70.4279 24.2384 70.6363 24.0012C71.0789 23.4975 71.772 22.8728 72.6147 22.188C74.3155 20.8056 76.7741 19.0587 79.4715 17.346C82.1696 15.6328 85.1326 13.9372 87.8445 12.6659C90.5069 11.4177 93.0862 10.5 94.9545 10.5V12.5C93.5744 12.5 91.3549 13.229 88.6934 14.4768C86.0813 15.7013 83.195 17.3508 80.5436 19.0344C77.8914 20.7184 75.5002 22.42 73.8761 23.74C73.0562 24.4064 72.4681 24.9464 72.1387 25.3213C71.9611 25.5234 71.9256 25.6036 71.934 25.5831C71.9378 25.5736 71.9968 25.4347 71.9628 25.2263C71.9189 24.957 71.7485 24.7389 71.5402 24.6242L70.575 26.3758Z" fill="black"/>
<path d="M31.9333 58.1696C26.9874 54.8176 3.49878 71 3.49878 71L11.4949 70.5V77C20.7235 70.8904 29.1933 67.7788 31.9333 73.6696C36.8156 84.166 43.4278 90 50.9241 90C58.4205 90 64.7564 84.4111 71.9139 73.6696C75.2457 68.6696 85.459 70.5 89.9568 77V70.5H97.953C92.4556 63.5 73.0167 57 69.4668 58.1696C65.9169 59.3392 64.969 80 50.9241 80.1696C36.8793 80.3392 36.2814 61.1164 31.9333 58.1696Z" fill="#F7DEA0" stroke="black" stroke-width="2" stroke-linejoin="round"/>
<path d="M70.466 48.1696C70.466 50.0104 69.9326 51.6561 69.0953 52.8288C68.2574 54.0025 67.145 54.6696 65.9685 54.6696C64.7919 54.6696 63.6795 54.0025 62.8416 52.8288C62.0044 51.6561 61.4709 50.0104 61.4709 48.1696C61.4709 46.3287 62.0044 44.683 62.8416 43.5104C63.6795 42.3367 64.7919 41.6696 65.9685 41.6696C67.145 41.6696 68.2574 42.3367 69.0953 43.5104C69.9326 44.683 70.466 46.3287 70.466 48.1696Z" fill="black" stroke="black"/>
<path d="M40.4806 48.1696C40.4806 50.0104 39.9472 51.6561 39.1099 52.8288C38.272 54.0025 37.1596 54.6696 35.983 54.6696C34.8065 54.6696 33.6941 54.0025 32.8562 52.8288C32.0189 51.6561 31.4855 50.0104 31.4855 48.1696C31.4855 46.3287 32.0189 44.683 32.8562 43.5104C33.6941 42.3367 34.8065 41.6696 35.983 41.6696C37.1596 41.6696 38.272 42.3367 39.1099 43.5104C39.9472 44.683 40.4806 46.3287 40.4806 48.1696Z" fill="black" stroke="black"/>
<path d="M59.42 77.1696L42.4283 77.1696C42.4283 77.1696 46.4263 86.6696 50.9242 86.6696C55.422 86.6696 59.42 77.1696 59.42 77.1696Z" fill="black" stroke="black" stroke-width="2" stroke-linejoin="round"/>
</svg>
