<svg width="104" height="100" viewBox="0 0 104 100" fill="none" xmlns="http://www.w3.org/2000/svg">
<path d="M3.44769 5.6696C-1.5499 8.66959 7.61234 35.8363 12.4433 44.1696L8.44532 53.1696H14.9422C10.6933 59.3531 2.29765 71.4404 4.49879 71L12.4433 69.6696V77.1696C20.3272 71.6428 26.4881 76 28.9869 78.5C33.4148 82.93 37.9825 95.5 52.4755 95C66.9685 94.5 71.4663 81.6696 76.4639 77.1696C80.4619 73.5696 87.2404 74.8363 90.9053 77.1696V71H99.4527C101.852 69.8 93.4041 57.3363 89.406 51.1696H93.4041L89.406 44.1696C107.797 12.5696 102.067 5.33627 96.9024 5.6696C89.3061 5.6696 73.4138 17.3363 66.4172 23.1696C57.6215 20.7696 42.0957 22.1696 35.4322 23.1696C24.2377 9.9696 8.44527 2.66962 3.44769 5.6696Z" fill="#FB8213" stroke="black" stroke-width="3" stroke-linejoin="round"/>
<path d="M30.3249 25C23.2968 28.8726 20.2126 29.6544 15.9931 36C13.0821 37.6829 4.99855 15 7.49735 11C13.9941 9.5 31.8242 24.1739 30.3249 25Z" fill="#CA4000"/>
<path d="M15.9931 36L16.7439 37.2986L17.0478 37.1229L17.2422 36.8306L15.9931 36ZM30.3249 25L29.601 23.6862L29.601 23.6862L30.3249 25ZM7.49735 11L7.15991 9.53845C6.77223 9.62795 6.43599 9.86782 6.22519 10.2053L7.49735 11ZM17.2422 36.8306C19.2587 33.7979 20.9518 32.1642 22.9463 30.815C25.0509 29.3912 27.4047 28.3217 31.0488 26.3138L29.601 23.6862C26.217 25.5509 23.5146 26.8086 21.2653 28.3302C18.9057 29.9264 16.947 31.8565 14.7441 35.1694L17.2422 36.8306ZM6.22519 10.2053C5.68628 11.0679 5.53893 12.2081 5.5257 13.273C5.51174 14.3962 5.64812 15.7009 5.88242 17.0814C6.35198 19.848 7.24455 23.0889 8.29976 26.1237C9.35273 29.1521 10.5941 32.0516 11.7874 34.1167C12.3745 35.1326 13.0059 36.0463 13.6602 36.6639C13.9853 36.9707 14.4024 37.288 14.9055 37.4599C15.4591 37.6491 16.1233 37.6574 16.7439 37.2986L15.2424 34.7014C15.4992 34.553 15.759 34.5813 15.8756 34.6211C15.9417 34.6437 15.889 34.6423 15.7194 34.4822C15.3842 34.1658 14.9261 33.5522 14.3849 32.6158C13.3219 30.7761 12.1528 28.0704 11.1334 25.1385C10.1161 22.2129 9.27442 19.1382 8.84013 16.5794C8.6225 15.2972 8.51458 14.1867 8.52546 13.3103C8.53708 12.3757 8.68373 11.9321 8.76952 11.7947L6.22519 10.2053ZM31.0488 26.3138C31.4937 26.0686 31.7898 25.6476 31.8825 25.1674C31.9605 24.7638 31.8769 24.4203 31.8128 24.2243C31.6846 23.8318 31.4451 23.4729 31.2425 23.2018C30.8069 22.6189 30.1326 21.913 29.3315 21.1601C27.7089 19.6349 25.3611 17.7263 22.7742 15.9019C20.1899 14.0794 17.3166 12.305 14.6423 11.0756C13.3053 10.461 11.9829 9.96619 10.7473 9.67658C9.52854 9.39095 8.28524 9.27863 7.15991 9.53845L7.8348 12.4615C8.33366 12.3464 9.06872 12.3645 10.0627 12.5974C11.0398 12.8264 12.1646 13.2384 13.3893 13.8014C15.8385 14.9273 18.5472 16.5918 21.0451 18.3535C23.5404 20.1133 25.7751 21.9344 27.2769 23.346C28.0381 24.0615 28.5616 24.6258 28.8394 24.9977C28.9936 25.2039 28.9898 25.2435 28.9612 25.156C28.947 25.1125 28.8791 24.8981 28.937 24.5984C29.0097 24.2221 29.2499 23.8797 29.601 23.6862L31.0488 26.3138Z" fill="black"/>
<path d="M72.0576 25.5C79.0857 29.3726 82.2396 30.6544 86.4591 37C89.3701 38.6829 98.4533 15.5 95.9545 11.5C89.4577 11.5 70.5583 24.6739 72.0576 25.5Z" fill="#CA4000"/>
<path d="M86.4591 37L85.7083 38.2986L85.4044 38.1229L85.21 37.8306L86.4591 37ZM72.0576 25.5L72.7815 24.1862L72.7815 24.1862L72.0576 25.5ZM95.9545 11.5V10C96.4718 10 96.9526 10.2665 97.2267 10.7053L95.9545 11.5ZM85.21 37.8306C83.1817 34.7802 81.4565 33.0117 79.4287 31.5352C77.3344 30.0104 74.9201 28.7899 71.3337 26.8138L72.7815 24.1862C76.2232 26.0827 78.9 27.4394 81.1945 29.11C83.5555 30.829 85.517 32.8742 87.7081 36.1694L85.21 37.8306ZM97.2267 10.7053C97.7788 11.5892 97.899 12.7596 97.8832 13.8352C97.8664 14.9752 97.6875 16.3012 97.4049 17.7047C96.8383 20.518 95.8182 23.8205 94.6369 26.9159C93.4576 30.006 92.0896 32.9637 90.8021 35.0703C90.1678 36.1082 89.4977 37.0324 88.8213 37.6551C88.486 37.9638 88.064 38.2788 87.5644 38.4521C87.02 38.6409 86.3452 38.6668 85.7083 38.2986L87.2098 35.7014C86.9369 35.5436 86.6741 35.5856 86.5813 35.6177C86.5335 35.6343 86.6027 35.6199 86.7894 35.448C87.1572 35.1094 87.6548 34.4673 88.2423 33.5059C89.3986 31.614 90.691 28.8416 91.8341 25.8463C92.9751 22.8563 93.9392 19.7183 94.4639 17.1124C94.7269 15.8063 94.8704 14.678 94.8835 13.7911C94.8975 12.8398 94.7548 12.4108 94.6823 12.2947L97.2267 10.7053ZM71.3337 26.8138C70.9042 26.5771 70.5812 26.1553 70.4953 25.6285C70.4244 25.193 70.54 24.8336 70.6179 24.6419C70.7745 24.2566 71.0446 23.9171 71.2607 23.6712C71.7316 23.1352 72.451 22.4895 73.2993 21.8C75.0194 20.402 77.4948 18.6438 80.2035 16.9239C82.9132 15.2033 85.8954 13.4962 88.6322 12.2132C91.2949 10.9649 93.9642 10 95.9545 10V13C94.6964 13 92.5669 13.6819 89.9056 14.9295C87.3185 16.1424 84.4514 17.7803 81.8116 19.4565C79.1707 21.1334 76.7964 22.8236 75.1915 24.128C74.3773 24.7897 73.8154 25.3087 73.5143 25.6513C73.3444 25.8447 73.3559 25.873 73.3972 25.7713C73.4174 25.7216 73.5112 25.483 73.4563 25.1458C73.3864 24.7174 73.1174 24.3713 72.7815 24.1862L71.3337 26.8138Z" fill="black"/>
<path d="M32.9333 58.1696C27.9874 54.8176 4.49878 71 4.49878 71L12.4949 70.5V77C21.7235 70.8904 30.1933 67.7788 32.9333 73.6696C37.8156 84.166 44.4278 90 51.9241 90C59.4205 90 65.7564 84.4111 72.9139 73.6696C76.2457 68.6696 86.459 70.5 90.9568 77V70.5H98.953C93.4556 63.5 74.0167 57 70.4668 58.1696C66.9169 59.3392 65.969 80 51.9241 80.1696C37.8793 80.3392 37.2814 61.1164 32.9333 58.1696Z" fill="#F7DEA0" stroke="black" stroke-width="3" stroke-linejoin="round"/>
<path d="M70.466 48.1696C70.466 49.8262 69.9844 51.2632 69.2815 52.2478C68.5765 53.2352 67.738 53.6696 66.9685 53.6696C66.1989 53.6696 65.3604 53.2352 64.6554 52.2478C63.9525 51.2632 63.4709 49.8262 63.4709 48.1696C63.4709 46.513 63.9525 45.0759 64.6554 44.0914C65.3604 43.104 66.1989 42.6696 66.9685 42.6696C67.738 42.6696 68.5765 43.104 69.2815 44.0914C69.9844 45.0759 70.466 46.513 70.466 48.1696Z" fill="black" stroke="black" stroke-width="3"/>
<path d="M40.4806 48.1696C40.4806 49.8262 39.999 51.2632 39.2961 52.2478C38.5911 53.2352 37.7526 53.6696 36.983 53.6696C36.2135 53.6696 35.375 53.2352 34.67 52.2478C33.9671 51.2632 33.4855 49.8262 33.4855 48.1696C33.4855 46.513 33.9671 45.0759 34.67 44.0914C35.375 43.104 36.2135 42.6696 36.983 42.6696C37.7526 42.6696 38.5911 43.104 39.2961 44.0914C39.999 45.0759 40.4806 46.513 40.4806 48.1696Z" fill="black" stroke="black" stroke-width="3"/>
<path d="M60.42 77.1696L43.4283 77.1696C43.4283 77.1696 47.4263 86.6696 51.9242 86.6696C56.422 86.6696 60.42 77.1696 60.42 77.1696Z" fill="black" stroke="black" stroke-width="3" stroke-linejoin="round"/>
</svg>
